<?xml version="1.0" standalone="no"?><!DOCTYPE svg PUBLIC "-//W3C//DTD SVG 1.1//EN" "http://www.w3.org/Graphics/SVG/1.1/DTD/svg11.dtd"><svg class="icon" style="" viewBox="0 0 1024 1024" version="1.1" xmlns="http://www.w3.org/2000/svg" p-id="4289" xmlns:xlink="http://www.w3.org/1999/xlink" width="200" height="200"><defs><style type="text/css"><![CDATA[

]]></style></defs><path d="M624.597963 521.237385c15.96153 0 28.720112-12.770861 28.720112-28.304649 0-15.534811-12.759605-28.096918-28.720112-28.096918l-87.240947 0 0-13.404288 106.610086-90.441848c11.0558-11.273764 10.848069-29.157064-0.644683-40.004109-11.491729-10.640338-29.571503-10.213619-40.648792 1.060145l-91.294262 75.333756-96.821139-75.759451c-11.283997-11.066033-29.364795-11.066033-40.648792 0-11.283997 11.066033-11.700483 28.949332-0.436952 39.797401l106.194624 85.974094 0 17.446347-85.12168 0c-15.960507 0-28.720112 12.562107-28.720112 28.096918 0 15.533788 12.759605 28.304649 28.720112 28.304649l85.12168 0 0 37.666878-85.12168 0c-15.960507 0-28.720112 12.551874-28.720112 28.085662 0 15.742543 12.759605 28.304649 28.720112 28.304649l85.12168 0 0 65.119113c0 15.534811 12.987802 28.294416 28.949332 28.294416 15.731286 0 28.740578-12.760628 28.740578-28.294416l0-65.119113 87.240947 0c15.96153 0 28.720112-12.562107 28.720112-28.304649 0-15.534811-12.759605-28.085662-28.720112-28.085662l-87.240947 0 0-37.666878L624.597963 521.239432zM511.171634 947.915138c7.231705 0 14.464433-3.615341 18.080797-7.231705 29.15604-18.10024 54.489008-32.79287 83.625606-50.873668 105.362676-65.326844 217.916125-130.663922 268.789793-257.70227 18.079774-43.63173 29.135574-90.660836 29.135574-145.138588L910.803403 236.498342c0-14.682397-11.0558-29.145807-29.135574-36.388768L518.404362 76.686567c-7.231705-3.616364-14.464433-3.616364-21.695115 0L133.237025 200.109574c-14.484899 7.242961-25.332968 21.706371-25.332968 36.388768l0 250.470565c0 50.65468 10.848069 101.507882 29.157064 145.138588 50.852178 127.038348 163.427116 192.375425 268.768303 257.70227 28.949332 14.464433 58.084906 32.772404 83.417875 50.873668C496.708224 944.299797 503.939929 947.915138 511.171634 947.915138zM184.089204 261.820054l327.08243-108.948341 326.854233 108.948341 0 225.148853c0 43.412742-7.231705 83.416851-21.696138 119.815853-43.620473 101.507882-138.115638 159.603021-239.819994 221.313501-21.717627 14.464433-43.640939 25.530466-65.338101 40.005133-21.924335-14.474666-43.640939-25.540699-65.337077-40.005133-101.70538-58.094116-196.199521-116.190279-239.819994-221.313501-14.46341-36.399001-21.924335-76.403111-21.924335-119.815853L184.090227 261.820054z" p-id="4290"></path></svg>