<?xml version="1.0" encoding="utf-8"?>
<!-- Generator: Adobe Illustrator 18.0.0, SVG Export Plug-In . SVG Version: 6.00 Build 0)  -->
<!DOCTYPE svg PUBLIC "-//W3C//DTD SVG 1.1//EN" "http://www.w3.org/Graphics/SVG/1.1/DTD/svg11.dtd">
<svg version="1.1" id="图层_1" xmlns="http://www.w3.org/2000/svg" xmlns:xlink="http://www.w3.org/1999/xlink" x="0px" y="0px"
	 viewBox="0 0 200 200" enable-background="new 0 0 200 200" xml:space="preserve">
<path fill="#C9CCCD" d="M163.2,181.2H36.9c-10,0-18-8.1-18-18V36.9c0-10,8.1-18,18-18h126.3c10,0,18,8.1,18,18v126.3
	C181.2,173.1,173.2,181.2,163.2,181.2L163.2,181.2z M127.1,100c2.5,0,4.5-2,4.5-4.5c0-2.5-2-4.5-4.5-4.5h-22.6v-2.6l21.2-21.2
	c1.8-1.8,1.8-4.7,0-6.4c-1.8-1.8-4.7-1.8-6.4,0L100.1,80L80.7,60.7c-1.8-1.8-4.7-1.8-6.4,0c-1.8,1.8-1.8,4.7,0,6.4l21.2,21.2V91H73
	c-2.5,0-4.5,2-4.5,4.5c0,2.5,2,4.5,4.5,4.5h22.6v9H73c-2.5,0-4.5,2-4.5,4.5c0,2.5,2,4.5,4.5,4.5h22.6v18c0,2.5,2,4.5,4.5,4.5
	c2.5,0,4.5-2,4.5-4.5v-18h22.6c2.5,0,4.5-2,4.5-4.5c0-2.5-2-4.5-4.5-4.5h-22.6v-9H127.1z"/>
</svg>
